<mxfile host="65bd71144e">
    <diagram id="p7NiB-FrmNHgtJCcj4tW" name="ifu">
        <mxGraphModel dx="1370" dy="792" grid="1" gridSize="10" guides="1" tooltips="1" connect="1" arrows="1" fold="1" page="1" pageScale="1" pageWidth="3300" pageHeight="4681" math="0" shadow="0">
            <root>
                <mxCell id="0"/>
                <mxCell id="1" parent="0"/>
                <mxCell id="2" value="" style="rounded=0;whiteSpace=wrap;html=1;" parent="1" vertex="1">
                    <mxGeometry x="350" y="210" width="120" height="170" as="geometry"/>
                </mxCell>
            </root>
        </mxGraphModel>
    </diagram>
    <diagram id="3VJJ5KlIxW1H7JF8ShX9" name="Page-2">
        <mxGraphModel dx="1130" dy="711" grid="1" gridSize="10" guides="1" tooltips="1" connect="1" arrows="1" fold="1" page="1" pageScale="1" pageWidth="3300" pageHeight="4681" math="0" shadow="0">
            <root>
                <mxCell id="0"/>
                <mxCell id="1" parent="0"/>
                <mxCell id="r6jnw9Qq46jv3ohvt1IM-1" value="ic" style="rounded=0;whiteSpace=wrap;html=1;" parent="1" vertex="1">
                    <mxGeometry x="500" y="280" width="120" height="60" as="geometry"/>
                </mxCell>
                <mxCell id="r6jnw9Qq46jv3ohvt1IM-2" value="tcm_mux" style="rounded=0;whiteSpace=wrap;html=1;" parent="1" vertex="1">
                    <mxGeometry x="440" y="380" width="100" height="20" as="geometry"/>
                </mxCell>
                <mxCell id="r6jnw9Qq46jv3ohvt1IM-3" value="imem" style="rounded=0;whiteSpace=wrap;html=1;" parent="1" vertex="1">
                    <mxGeometry x="400" y="440" width="40" height="30" as="geometry"/>
                </mxCell>
                <mxCell id="r6jnw9Qq46jv3ohvt1IM-4" value="dc" style="rounded=0;whiteSpace=wrap;html=1;" parent="1" vertex="1">
                    <mxGeometry x="450" y="440" width="40" height="30" as="geometry"/>
                </mxCell>
                <mxCell id="r6jnw9Qq46jv3ohvt1IM-5" value="zbus" style="rounded=0;whiteSpace=wrap;html=1;" parent="1" vertex="1">
                    <mxGeometry x="500" y="440" width="40" height="30" as="geometry"/>
                </mxCell>
                <mxCell id="r6jnw9Qq46jv3ohvt1IM-7" value="master0" style="rounded=1;whiteSpace=wrap;html=1;" parent="1" vertex="1">
                    <mxGeometry x="560" y="380" width="80" height="20" as="geometry"/>
                </mxCell>
                <mxCell id="r6jnw9Qq46jv3ohvt1IM-8" value="ifu" style="rounded=0;whiteSpace=wrap;html=1;" parent="1" vertex="1">
                    <mxGeometry x="760" y="280" width="120" height="60" as="geometry"/>
                </mxCell>
                <mxCell id="r6jnw9Qq46jv3ohvt1IM-9" value="" style="shape=flexArrow;endArrow=classic;startArrow=classic;html=1;" parent="1" edge="1">
                    <mxGeometry width="100" height="100" relative="1" as="geometry">
                        <mxPoint x="620" y="309.65999999999997" as="sourcePoint"/>
                        <mxPoint x="760" y="310" as="targetPoint"/>
                    </mxGeometry>
                </mxCell>
                <mxCell id="r6jnw9Qq46jv3ohvt1IM-10" value="crf" style="rounded=0;whiteSpace=wrap;html=1;" parent="1" vertex="1">
                    <mxGeometry x="750" y="400" width="600" height="30" as="geometry"/>
                </mxCell>
                <mxCell id="r6jnw9Qq46jv3ohvt1IM-11" value="" style="shape=flexArrow;endArrow=classic;startArrow=classic;html=1;" parent="1" edge="1">
                    <mxGeometry width="100" height="100" relative="1" as="geometry">
                        <mxPoint x="660" y="170" as="sourcePoint"/>
                        <mxPoint x="760" y="70" as="targetPoint"/>
                    </mxGeometry>
                </mxCell>
                <mxCell id="r6jnw9Qq46jv3ohvt1IM-13" value="idu" style="rounded=0;whiteSpace=wrap;html=1;" parent="1" vertex="1">
                    <mxGeometry x="960" y="280" width="120" height="60" as="geometry"/>
                </mxCell>
                <mxCell id="r6jnw9Qq46jv3ohvt1IM-14" value="zicu" style="rounded=0;whiteSpace=wrap;html=1;" parent="1" vertex="1">
                    <mxGeometry x="920" y="480" width="120" height="30" as="geometry"/>
                </mxCell>
                <mxCell id="r6jnw9Qq46jv3ohvt1IM-15" value="deu" style="rounded=0;whiteSpace=wrap;html=1;" parent="1" vertex="1">
                    <mxGeometry x="760" y="480" width="120" height="30" as="geometry"/>
                </mxCell>
                <mxCell id="r6jnw9Qq46jv3ohvt1IM-16" value="isu" style="rounded=0;whiteSpace=wrap;html=1;" parent="1" vertex="1">
                    <mxGeometry x="1200" y="280" width="120" height="60" as="geometry"/>
                </mxCell>
            </root>
        </mxGraphModel>
    </diagram>
    <diagram id="SzcNmonMb_2F9yGCtXm0" name="Page-3">
        <mxGraphModel dx="1370" dy="5473" grid="1" gridSize="10" guides="1" tooltips="1" connect="1" arrows="1" fold="1" page="1" pageScale="1" pageWidth="3300" pageHeight="4681" math="0" shadow="0">
            <root>
                <mxCell id="0"/>
                <mxCell id="1" parent="0"/>
                <mxCell id="3mtPveJn1evBH_lxr1_l-66" value="byp" style="rounded=0;whiteSpace=wrap;html=1;fontSize=24;" parent="1" vertex="1">
                    <mxGeometry x="600" y="1290" width="80" height="230" as="geometry"/>
                </mxCell>
                <mxCell id="3mtPveJn1evBH_lxr1_l-65" value="" style="rounded=0;whiteSpace=wrap;html=1;fontSize=24;" parent="1" vertex="1">
                    <mxGeometry x="910" y="1350" width="120" height="190" as="geometry"/>
                </mxCell>
                <mxCell id="SOoFY4HQuOB825SWxct_-1" value="&lt;font style=&quot;font-size: 24px;&quot;&gt;isu&lt;/font&gt;" style="rounded=0;whiteSpace=wrap;html=1;" parent="1" vertex="1">
                    <mxGeometry x="360" y="110" width="90" height="440" as="geometry"/>
                </mxCell>
                <mxCell id="3mtPveJn1evBH_lxr1_l-12" style="edgeStyle=none;html=1;entryX=0.5;entryY=0;entryDx=0;entryDy=0;fontSize=24;" parent="1" source="3mtPveJn1evBH_lxr1_l-1" target="3mtPveJn1evBH_lxr1_l-10" edge="1">
                    <mxGeometry relative="1" as="geometry"/>
                </mxCell>
                <mxCell id="3mtPveJn1evBH_lxr1_l-1" value="ORF RD" style="rounded=0;whiteSpace=wrap;html=1;" parent="1" vertex="1">
                    <mxGeometry x="600" y="120" width="80" height="80" as="geometry"/>
                </mxCell>
                <mxCell id="3mtPveJn1evBH_lxr1_l-2" value="" style="shape=flexArrow;endArrow=classic;html=1;" parent="1" edge="1">
                    <mxGeometry width="50" height="50" relative="1" as="geometry">
                        <mxPoint x="450" y="159.5" as="sourcePoint"/>
                        <mxPoint x="600" y="160" as="targetPoint"/>
                    </mxGeometry>
                </mxCell>
                <mxCell id="3mtPveJn1evBH_lxr1_l-3" value="isu_orf" style="text;html=1;strokeColor=none;fillColor=none;align=center;verticalAlign=middle;whiteSpace=wrap;rounded=0;" parent="1" vertex="1">
                    <mxGeometry x="490" y="130" width="60" height="30" as="geometry"/>
                </mxCell>
                <mxCell id="3mtPveJn1evBH_lxr1_l-6" style="edgeStyle=none;html=1;entryX=1;entryY=0.5;entryDx=0;entryDy=0;fontSize=24;" parent="1" source="3mtPveJn1evBH_lxr1_l-4" target="3mtPveJn1evBH_lxr1_l-1" edge="1">
                    <mxGeometry relative="1" as="geometry"/>
                </mxCell>
                <mxCell id="3mtPveJn1evBH_lxr1_l-4" value="orf reg" style="rounded=0;whiteSpace=wrap;html=1;fontSize=24;" parent="1" vertex="1">
                    <mxGeometry x="700" y="130" width="120" height="60" as="geometry"/>
                </mxCell>
                <mxCell id="3mtPveJn1evBH_lxr1_l-7" style="edgeStyle=none;html=1;entryX=1;entryY=0.5;entryDx=0;entryDy=0;fontSize=24;" parent="1" source="3mtPveJn1evBH_lxr1_l-5" target="3mtPveJn1evBH_lxr1_l-4" edge="1">
                    <mxGeometry relative="1" as="geometry"/>
                </mxCell>
                <mxCell id="3mtPveJn1evBH_lxr1_l-5" value="ORF WR" style="rounded=0;whiteSpace=wrap;html=1;" parent="1" vertex="1">
                    <mxGeometry x="840" y="120" width="80" height="80" as="geometry"/>
                </mxCell>
                <mxCell id="3mtPveJn1evBH_lxr1_l-8" value="" style="endArrow=none;dashed=1;html=1;dashPattern=1 3;strokeWidth=2;fontSize=24;" parent="1" edge="1">
                    <mxGeometry width="50" height="50" relative="1" as="geometry">
                        <mxPoint x="960" y="720" as="sourcePoint"/>
                        <mxPoint x="960" as="targetPoint"/>
                    </mxGeometry>
                </mxCell>
                <mxCell id="3mtPveJn1evBH_lxr1_l-28" style="edgeStyle=orthogonalEdgeStyle;html=1;exitX=1;exitY=0.25;exitDx=0;exitDy=0;entryX=1;entryY=0.75;entryDx=0;entryDy=0;fontSize=24;" parent="1" source="3mtPveJn1evBH_lxr1_l-9" target="3mtPveJn1evBH_lxr1_l-5" edge="1">
                    <mxGeometry relative="1" as="geometry">
                        <Array as="points">
                            <mxPoint x="1150" y="388"/>
                            <mxPoint x="1150" y="180"/>
                        </Array>
                    </mxGeometry>
                </mxCell>
                <mxCell id="3mtPveJn1evBH_lxr1_l-29" value="&lt;font style=&quot;font-size: 12px;&quot;&gt;mau_orf_res&lt;/font&gt;" style="edgeLabel;html=1;align=center;verticalAlign=middle;resizable=0;points=[];fontSize=24;rotation=0;" parent="3mtPveJn1evBH_lxr1_l-28" vertex="1" connectable="0">
                    <mxGeometry x="-0.3262" y="1" relative="1" as="geometry">
                        <mxPoint x="-9" y="1" as="offset"/>
                    </mxGeometry>
                </mxCell>
                <mxCell id="3mtPveJn1evBH_lxr1_l-9" value="MAU" style="rounded=0;whiteSpace=wrap;html=1;fontSize=24;" parent="1" vertex="1">
                    <mxGeometry x="1000" y="340" width="120" height="190" as="geometry"/>
                </mxCell>
                <mxCell id="3mtPveJn1evBH_lxr1_l-10" value="byp" style="rounded=0;whiteSpace=wrap;html=1;fontSize=24;" parent="1" vertex="1">
                    <mxGeometry x="600" y="280" width="80" height="230" as="geometry"/>
                </mxCell>
                <mxCell id="3mtPveJn1evBH_lxr1_l-13" value="" style="shape=flexArrow;endArrow=classic;html=1;" parent="1" edge="1">
                    <mxGeometry width="50" height="50" relative="1" as="geometry">
                        <mxPoint x="540" y="160" as="sourcePoint"/>
                        <mxPoint x="600" y="320.5" as="targetPoint"/>
                        <Array as="points">
                            <mxPoint x="540" y="320"/>
                        </Array>
                    </mxGeometry>
                </mxCell>
                <mxCell id="3mtPveJn1evBH_lxr1_l-14" value="" style="shape=flexArrow;endArrow=classic;html=1;" parent="1" edge="1">
                    <mxGeometry width="50" height="50" relative="1" as="geometry">
                        <mxPoint x="450" y="394.5" as="sourcePoint"/>
                        <mxPoint x="600" y="395" as="targetPoint"/>
                    </mxGeometry>
                </mxCell>
                <mxCell id="3mtPveJn1evBH_lxr1_l-15" value="" style="shape=flexArrow;endArrow=classic;html=1;" parent="1" edge="1">
                    <mxGeometry width="50" height="50" relative="1" as="geometry">
                        <mxPoint x="450" y="470" as="sourcePoint"/>
                        <mxPoint x="600" y="470.5" as="targetPoint"/>
                    </mxGeometry>
                </mxCell>
                <mxCell id="3mtPveJn1evBH_lxr1_l-16" value="DG" style="text;html=1;strokeColor=none;fillColor=none;align=center;verticalAlign=middle;whiteSpace=wrap;rounded=0;fontSize=24;" parent="1" vertex="1">
                    <mxGeometry x="610" y="30" width="60" height="30" as="geometry"/>
                </mxCell>
                <mxCell id="3mtPveJn1evBH_lxr1_l-17" value="EX" style="text;html=1;strokeColor=none;fillColor=none;align=center;verticalAlign=middle;whiteSpace=wrap;rounded=0;fontSize=24;" parent="1" vertex="1">
                    <mxGeometry x="1140" y="30" width="60" height="30" as="geometry"/>
                </mxCell>
                <mxCell id="3mtPveJn1evBH_lxr1_l-18" value="" style="endArrow=none;dashed=1;html=1;dashPattern=1 3;strokeWidth=2;fontSize=24;" parent="1" edge="1">
                    <mxGeometry width="50" height="50" relative="1" as="geometry">
                        <mxPoint x="1360" y="720" as="sourcePoint"/>
                        <mxPoint x="1360" as="targetPoint"/>
                    </mxGeometry>
                </mxCell>
                <mxCell id="3mtPveJn1evBH_lxr1_l-19" value="WB" style="text;html=1;strokeColor=none;fillColor=none;align=center;verticalAlign=middle;whiteSpace=wrap;rounded=0;fontSize=24;" parent="1" vertex="1">
                    <mxGeometry x="1490" y="30" width="60" height="30" as="geometry"/>
                </mxCell>
                <mxCell id="3mtPveJn1evBH_lxr1_l-20" value="RCU" style="rounded=0;whiteSpace=wrap;html=1;fontSize=24;" parent="1" vertex="1">
                    <mxGeometry x="1380" y="130" width="100" height="470" as="geometry"/>
                </mxCell>
                <mxCell id="3mtPveJn1evBH_lxr1_l-21" value="" style="shape=flexArrow;endArrow=classic;html=1;fontSize=24;exitX=-0.04;exitY=0.064;exitDx=0;exitDy=0;exitPerimeter=0;fillColor=#fff2cc;strokeColor=#d6b656;" parent="1" source="3mtPveJn1evBH_lxr1_l-20" edge="1">
                    <mxGeometry width="50" height="50" relative="1" as="geometry">
                        <mxPoint x="1050" y="159" as="sourcePoint"/>
                        <mxPoint x="920" y="159" as="targetPoint"/>
                        <Array as="points">
                            <mxPoint x="1100" y="160"/>
                            <mxPoint x="1070" y="159"/>
                        </Array>
                    </mxGeometry>
                </mxCell>
                <mxCell id="3mtPveJn1evBH_lxr1_l-22" value="rcu_orf" style="text;html=1;strokeColor=none;fillColor=none;align=center;verticalAlign=middle;whiteSpace=wrap;rounded=0;" parent="1" vertex="1">
                    <mxGeometry x="1120" y="130" width="60" height="30" as="geometry"/>
                </mxCell>
                <mxCell id="3mtPveJn1evBH_lxr1_l-25" value="" style="shape=flexArrow;endArrow=classic;html=1;fontSize=24;fillColor=#fff2cc;strokeColor=#d6b656;" parent="1" edge="1">
                    <mxGeometry width="50" height="50" relative="1" as="geometry">
                        <mxPoint x="1010" y="160" as="sourcePoint"/>
                        <mxPoint x="680" y="300" as="targetPoint"/>
                        <Array as="points">
                            <mxPoint x="1010" y="230"/>
                            <mxPoint x="1010" y="300"/>
                            <mxPoint x="920" y="300"/>
                            <mxPoint x="770" y="300"/>
                        </Array>
                    </mxGeometry>
                </mxCell>
                <mxCell id="3mtPveJn1evBH_lxr1_l-26" value="isu_byp_mau0" style="text;html=1;strokeColor=none;fillColor=none;align=center;verticalAlign=middle;whiteSpace=wrap;rounded=0;" parent="1" vertex="1">
                    <mxGeometry x="490" y="360" width="60" height="30" as="geometry"/>
                </mxCell>
                <mxCell id="3mtPveJn1evBH_lxr1_l-27" value="isu_byp_lsu0" style="text;html=1;strokeColor=none;fillColor=none;align=center;verticalAlign=middle;whiteSpace=wrap;rounded=0;" parent="1" vertex="1">
                    <mxGeometry x="490" y="440" width="60" height="30" as="geometry"/>
                </mxCell>
                <mxCell id="3mtPveJn1evBH_lxr1_l-30" value="" style="shape=flexArrow;endArrow=classic;html=1;fontSize=12;entryX=0;entryY=0.686;entryDx=0;entryDy=0;entryPerimeter=0;" parent="1" target="3mtPveJn1evBH_lxr1_l-9" edge="1">
                    <mxGeometry width="50" height="50" relative="1" as="geometry">
                        <mxPoint x="680" y="420" as="sourcePoint"/>
                        <mxPoint x="770" y="530" as="targetPoint"/>
                        <Array as="points">
                            <mxPoint x="770" y="420"/>
                            <mxPoint x="770" y="470"/>
                        </Array>
                    </mxGeometry>
                </mxCell>
                <mxCell id="3mtPveJn1evBH_lxr1_l-31" value="" style="shape=flexArrow;endArrow=classic;html=1;fontSize=12;" parent="1" edge="1">
                    <mxGeometry width="50" height="50" relative="1" as="geometry">
                        <mxPoint x="770" y="430" as="sourcePoint"/>
                        <mxPoint x="1000" y="430" as="targetPoint"/>
                    </mxGeometry>
                </mxCell>
                <mxCell id="3mtPveJn1evBH_lxr1_l-32" value="" style="shape=flexArrow;endArrow=classic;html=1;fontSize=12;" parent="1" edge="1">
                    <mxGeometry width="50" height="50" relative="1" as="geometry">
                        <mxPoint x="770" y="420" as="sourcePoint"/>
                        <mxPoint x="1000" y="390" as="targetPoint"/>
                        <Array as="points">
                            <mxPoint x="770" y="390"/>
                        </Array>
                    </mxGeometry>
                </mxCell>
                <mxCell id="3mtPveJn1evBH_lxr1_l-33" value="" style="shape=flexArrow;endArrow=classic;html=1;fontSize=12;exitX=0;exitY=0.128;exitDx=0;exitDy=0;exitPerimeter=0;fillColor=#f8cecc;strokeColor=#b85450;" parent="1" source="3mtPveJn1evBH_lxr1_l-9" edge="1">
                    <mxGeometry width="50" height="50" relative="1" as="geometry">
                        <mxPoint x="930" y="364.41" as="sourcePoint"/>
                        <mxPoint x="680" y="364.41" as="targetPoint"/>
                    </mxGeometry>
                </mxCell>
                <mxCell id="3mtPveJn1evBH_lxr1_l-34" value="mau_byp_res" style="text;html=1;strokeColor=none;fillColor=none;align=center;verticalAlign=middle;whiteSpace=wrap;rounded=0;fontSize=12;" parent="1" vertex="1">
                    <mxGeometry x="820" y="330" width="60" height="30" as="geometry"/>
                </mxCell>
                <mxCell id="3mtPveJn1evBH_lxr1_l-35" value="byp_mau_rs1" style="text;html=1;strokeColor=none;fillColor=none;align=center;verticalAlign=middle;whiteSpace=wrap;rounded=0;fontSize=12;" parent="1" vertex="1">
                    <mxGeometry x="820" y="360" width="60" height="30" as="geometry"/>
                </mxCell>
                <mxCell id="3mtPveJn1evBH_lxr1_l-36" value="byp_mau_rs2" style="text;html=1;strokeColor=none;fillColor=none;align=center;verticalAlign=middle;whiteSpace=wrap;rounded=0;fontSize=12;" parent="1" vertex="1">
                    <mxGeometry x="820" y="400" width="60" height="30" as="geometry"/>
                </mxCell>
                <mxCell id="3mtPveJn1evBH_lxr1_l-38" value="byp_mau_acc" style="text;html=1;strokeColor=none;fillColor=none;align=center;verticalAlign=middle;whiteSpace=wrap;rounded=0;fontSize=12;" parent="1" vertex="1">
                    <mxGeometry x="820" y="440" width="60" height="30" as="geometry"/>
                </mxCell>
                <mxCell id="3mtPveJn1evBH_lxr1_l-39" value="" style="shape=flexArrow;endArrow=classic;html=1;fontSize=12;entryX=-0.03;entryY=0.66;entryDx=0;entryDy=0;entryPerimeter=0;" parent="1" target="3mtPveJn1evBH_lxr1_l-20" edge="1">
                    <mxGeometry width="50" height="50" relative="1" as="geometry">
                        <mxPoint x="1120" y="440" as="sourcePoint"/>
                        <mxPoint x="1310" y="440" as="targetPoint"/>
                    </mxGeometry>
                </mxCell>
                <mxCell id="3mtPveJn1evBH_lxr1_l-40" value="mau_pip_hwflag*" style="text;html=1;strokeColor=none;fillColor=none;align=center;verticalAlign=middle;whiteSpace=wrap;rounded=0;fontSize=12;" parent="1" vertex="1">
                    <mxGeometry x="1200" y="400" width="90" height="30" as="geometry"/>
                </mxCell>
                <mxCell id="3mtPveJn1evBH_lxr1_l-48" style="edgeStyle=none;html=1;exitX=1;exitY=0.5;exitDx=0;exitDy=0;fontSize=16;entryX=1.005;entryY=0.787;entryDx=0;entryDy=0;entryPerimeter=0;" parent="1" source="3mtPveJn1evBH_lxr1_l-41" target="3mtPveJn1evBH_lxr1_l-9" edge="1">
                    <mxGeometry relative="1" as="geometry">
                        <mxPoint x="1160" y="480" as="targetPoint"/>
                        <Array as="points">
                            <mxPoint x="1160" y="600"/>
                            <mxPoint x="1160" y="490"/>
                        </Array>
                    </mxGeometry>
                </mxCell>
                <mxCell id="3mtPveJn1evBH_lxr1_l-52" value="&lt;font style=&quot;font-size: 12px;&quot;&gt;mau_scpi_res&lt;/font&gt;" style="edgeLabel;html=1;align=center;verticalAlign=middle;resizable=0;points=[];fontSize=16;" parent="3mtPveJn1evBH_lxr1_l-48" vertex="1" connectable="0">
                    <mxGeometry x="-0.1024" y="-3" relative="1" as="geometry">
                        <mxPoint as="offset"/>
                    </mxGeometry>
                </mxCell>
                <mxCell id="3mtPveJn1evBH_lxr1_l-41" value="&lt;font style=&quot;font-size: 24px;&quot;&gt;cop_conn&lt;/font&gt;" style="rounded=0;whiteSpace=wrap;html=1;fontSize=12;fillColor=#a20025;fontColor=#ffffff;strokeColor=#6F0000;" parent="1" vertex="1">
                    <mxGeometry x="1000" y="560" width="120" height="80" as="geometry"/>
                </mxCell>
                <mxCell id="3mtPveJn1evBH_lxr1_l-42" value="" style="shape=flexArrow;endArrow=classic;html=1;fontSize=24;entryX=0;entryY=0.5;entryDx=0;entryDy=0;" parent="1" target="3mtPveJn1evBH_lxr1_l-41" edge="1">
                    <mxGeometry width="50" height="50" relative="1" as="geometry">
                        <mxPoint x="720" y="420" as="sourcePoint"/>
                        <mxPoint x="990" y="600" as="targetPoint"/>
                        <Array as="points">
                            <mxPoint x="720" y="600"/>
                            <mxPoint x="950" y="600"/>
                        </Array>
                    </mxGeometry>
                </mxCell>
                <mxCell id="3mtPveJn1evBH_lxr1_l-43" value="" style="endArrow=classic;html=1;fontSize=24;entryX=-0.028;entryY=0.944;entryDx=0;entryDy=0;entryPerimeter=0;" parent="1" target="3mtPveJn1evBH_lxr1_l-9" edge="1">
                    <mxGeometry relative="1" as="geometry">
                        <mxPoint x="450" y="520" as="sourcePoint"/>
                        <mxPoint x="550" y="520" as="targetPoint"/>
                        <Array as="points">
                            <mxPoint x="770" y="519"/>
                        </Array>
                    </mxGeometry>
                </mxCell>
                <mxCell id="3mtPveJn1evBH_lxr1_l-44" value="&lt;font style=&quot;font-size: 16px;&quot;&gt;isu_mau&lt;/font&gt;" style="edgeLabel;resizable=0;html=1;align=center;verticalAlign=middle;fontSize=24;" parent="3mtPveJn1evBH_lxr1_l-43" connectable="0" vertex="1">
                    <mxGeometry relative="1" as="geometry">
                        <mxPoint x="-173" as="offset"/>
                    </mxGeometry>
                </mxCell>
                <mxCell id="3mtPveJn1evBH_lxr1_l-47" value="" style="edgeStyle=none;orthogonalLoop=1;jettySize=auto;html=1;fontSize=16;entryX=-0.013;entryY=0.147;entryDx=0;entryDy=0;entryPerimeter=0;" parent="1" target="3mtPveJn1evBH_lxr1_l-41" edge="1">
                    <mxGeometry width="80" relative="1" as="geometry">
                        <mxPoint x="810" y="520" as="sourcePoint"/>
                        <mxPoint x="1030" y="460" as="targetPoint"/>
                        <Array as="points">
                            <mxPoint x="810" y="572"/>
                        </Array>
                    </mxGeometry>
                </mxCell>
                <mxCell id="3mtPveJn1evBH_lxr1_l-51" style="edgeStyle=none;html=1;entryX=0;entryY=0.121;entryDx=0;entryDy=0;entryPerimeter=0;fontSize=16;" parent="1" source="3mtPveJn1evBH_lxr1_l-50" target="3mtPveJn1evBH_lxr1_l-9" edge="1">
                    <mxGeometry relative="1" as="geometry">
                        <Array as="points">
                            <mxPoint x="1030" y="493"/>
                            <mxPoint x="1030" y="363"/>
                        </Array>
                    </mxGeometry>
                </mxCell>
                <mxCell id="3mtPveJn1evBH_lxr1_l-50" value="mux" style="shape=trapezoid;perimeter=trapezoidPerimeter;whiteSpace=wrap;html=1;fixedSize=1;fontSize=16;rotation=90;" parent="1" vertex="1">
                    <mxGeometry x="1070" y="470" width="55" height="45" as="geometry"/>
                </mxCell>
                <mxCell id="3mtPveJn1evBH_lxr1_l-113" style="edgeStyle=none;html=1;exitX=1;exitY=0.25;exitDx=0;exitDy=0;entryX=-0.007;entryY=0.187;entryDx=0;entryDy=0;entryPerimeter=0;fontSize=12;" parent="1" source="3mtPveJn1evBH_lxr1_l-53" target="3mtPveJn1evBH_lxr1_l-74" edge="1">
                    <mxGeometry relative="1" as="geometry"/>
                </mxCell>
                <mxCell id="3mtPveJn1evBH_lxr1_l-114" value="isu_xxx_rcu_cpkt" style="edgeLabel;html=1;align=center;verticalAlign=middle;resizable=0;points=[];fontSize=12;" parent="3mtPveJn1evBH_lxr1_l-113" vertex="1" connectable="0">
                    <mxGeometry x="0.4087" y="1" relative="1" as="geometry">
                        <mxPoint x="74" as="offset"/>
                    </mxGeometry>
                </mxCell>
                <mxCell id="3mtPveJn1evBH_lxr1_l-53" value="&lt;font style=&quot;font-size: 24px;&quot;&gt;isu&lt;/font&gt;" style="rounded=0;whiteSpace=wrap;html=1;" parent="1" vertex="1">
                    <mxGeometry x="360" y="1120" width="90" height="440" as="geometry"/>
                </mxCell>
                <mxCell id="3mtPveJn1evBH_lxr1_l-54" style="edgeStyle=none;html=1;entryX=0.5;entryY=0;entryDx=0;entryDy=0;fontSize=24;" parent="1" source="3mtPveJn1evBH_lxr1_l-55" target="3mtPveJn1evBH_lxr1_l-66" edge="1">
                    <mxGeometry relative="1" as="geometry"/>
                </mxCell>
                <mxCell id="3mtPveJn1evBH_lxr1_l-55" value="ORF RD" style="rounded=0;whiteSpace=wrap;html=1;" parent="1" vertex="1">
                    <mxGeometry x="600" y="1130" width="80" height="80" as="geometry"/>
                </mxCell>
                <mxCell id="3mtPveJn1evBH_lxr1_l-56" value="" style="shape=flexArrow;endArrow=classic;html=1;" parent="1" edge="1">
                    <mxGeometry width="50" height="50" relative="1" as="geometry">
                        <mxPoint x="450" y="1169.5" as="sourcePoint"/>
                        <mxPoint x="600" y="1170" as="targetPoint"/>
                    </mxGeometry>
                </mxCell>
                <mxCell id="3mtPveJn1evBH_lxr1_l-57" value="isu_orf" style="text;html=1;strokeColor=none;fillColor=none;align=center;verticalAlign=middle;whiteSpace=wrap;rounded=0;" parent="1" vertex="1">
                    <mxGeometry x="490" y="1140" width="60" height="30" as="geometry"/>
                </mxCell>
                <mxCell id="3mtPveJn1evBH_lxr1_l-58" style="edgeStyle=none;html=1;entryX=1;entryY=0.5;entryDx=0;entryDy=0;fontSize=24;" parent="1" source="3mtPveJn1evBH_lxr1_l-59" target="3mtPveJn1evBH_lxr1_l-55" edge="1">
                    <mxGeometry relative="1" as="geometry"/>
                </mxCell>
                <mxCell id="3mtPveJn1evBH_lxr1_l-59" value="orf reg" style="rounded=0;whiteSpace=wrap;html=1;fontSize=24;" parent="1" vertex="1">
                    <mxGeometry x="700" y="1140" width="120" height="60" as="geometry"/>
                </mxCell>
                <mxCell id="3mtPveJn1evBH_lxr1_l-60" style="edgeStyle=none;html=1;entryX=1;entryY=0.5;entryDx=0;entryDy=0;fontSize=24;" parent="1" source="3mtPveJn1evBH_lxr1_l-61" target="3mtPveJn1evBH_lxr1_l-59" edge="1">
                    <mxGeometry relative="1" as="geometry"/>
                </mxCell>
                <mxCell id="3mtPveJn1evBH_lxr1_l-61" value="ORF WR" style="rounded=0;whiteSpace=wrap;html=1;" parent="1" vertex="1">
                    <mxGeometry x="840" y="1130" width="80" height="80" as="geometry"/>
                </mxCell>
                <mxCell id="3mtPveJn1evBH_lxr1_l-62" value="" style="endArrow=none;dashed=1;html=1;dashPattern=1 3;strokeWidth=2;fontSize=24;" parent="1" edge="1">
                    <mxGeometry width="50" height="50" relative="1" as="geometry">
                        <mxPoint x="960" y="1730" as="sourcePoint"/>
                        <mxPoint x="960" y="1010" as="targetPoint"/>
                    </mxGeometry>
                </mxCell>
                <mxCell id="3mtPveJn1evBH_lxr1_l-67" value="" style="shape=flexArrow;endArrow=classic;html=1;" parent="1" edge="1">
                    <mxGeometry width="50" height="50" relative="1" as="geometry">
                        <mxPoint x="540" y="1170" as="sourcePoint"/>
                        <mxPoint x="600" y="1330.5" as="targetPoint"/>
                        <Array as="points">
                            <mxPoint x="540" y="1330"/>
                        </Array>
                    </mxGeometry>
                </mxCell>
                <mxCell id="3mtPveJn1evBH_lxr1_l-68" value="" style="shape=flexArrow;endArrow=classic;html=1;" parent="1" edge="1">
                    <mxGeometry width="50" height="50" relative="1" as="geometry">
                        <mxPoint x="450" y="1404.5" as="sourcePoint"/>
                        <mxPoint x="600" y="1405" as="targetPoint"/>
                    </mxGeometry>
                </mxCell>
                <mxCell id="3mtPveJn1evBH_lxr1_l-69" value="" style="shape=flexArrow;endArrow=classic;html=1;" parent="1" edge="1">
                    <mxGeometry width="50" height="50" relative="1" as="geometry">
                        <mxPoint x="450" y="1480" as="sourcePoint"/>
                        <mxPoint x="600" y="1480.5" as="targetPoint"/>
                    </mxGeometry>
                </mxCell>
                <mxCell id="3mtPveJn1evBH_lxr1_l-70" value="DG" style="text;html=1;strokeColor=none;fillColor=none;align=center;verticalAlign=middle;whiteSpace=wrap;rounded=0;fontSize=24;" parent="1" vertex="1">
                    <mxGeometry x="610" y="1040" width="60" height="30" as="geometry"/>
                </mxCell>
                <mxCell id="3mtPveJn1evBH_lxr1_l-71" value="EX" style="text;html=1;strokeColor=none;fillColor=none;align=center;verticalAlign=middle;whiteSpace=wrap;rounded=0;fontSize=24;" parent="1" vertex="1">
                    <mxGeometry x="1140" y="1040" width="60" height="30" as="geometry"/>
                </mxCell>
                <mxCell id="3mtPveJn1evBH_lxr1_l-72" value="" style="endArrow=none;dashed=1;html=1;dashPattern=1 3;strokeWidth=2;fontSize=24;" parent="1" edge="1">
                    <mxGeometry width="50" height="50" relative="1" as="geometry">
                        <mxPoint x="1240" y="1730" as="sourcePoint"/>
                        <mxPoint x="1240" y="1010" as="targetPoint"/>
                        <Array as="points">
                            <mxPoint x="1240" y="1370"/>
                        </Array>
                    </mxGeometry>
                </mxCell>
                <mxCell id="3mtPveJn1evBH_lxr1_l-73" value="WB" style="text;html=1;strokeColor=none;fillColor=none;align=center;verticalAlign=middle;whiteSpace=wrap;rounded=0;fontSize=24;" parent="1" vertex="1">
                    <mxGeometry x="1490" y="1040" width="60" height="30" as="geometry"/>
                </mxCell>
                <mxCell id="3mtPveJn1evBH_lxr1_l-74" value="RCU" style="rounded=0;whiteSpace=wrap;html=1;fontSize=24;" parent="1" vertex="1">
                    <mxGeometry x="1240" y="1140" width="100" height="470" as="geometry"/>
                </mxCell>
                <mxCell id="3mtPveJn1evBH_lxr1_l-75" value="" style="shape=flexArrow;endArrow=classic;html=1;fontSize=24;fillColor=#fff2cc;strokeColor=#d6b656;" parent="1" edge="1">
                    <mxGeometry width="50" height="50" relative="1" as="geometry">
                        <mxPoint x="1240" y="1170" as="sourcePoint"/>
                        <mxPoint x="920" y="1169" as="targetPoint"/>
                        <Array as="points">
                            <mxPoint x="1100" y="1170"/>
                            <mxPoint x="1070" y="1169"/>
                        </Array>
                    </mxGeometry>
                </mxCell>
                <mxCell id="3mtPveJn1evBH_lxr1_l-76" value="rcu_orf" style="text;html=1;strokeColor=none;fillColor=none;align=center;verticalAlign=middle;whiteSpace=wrap;rounded=0;" parent="1" vertex="1">
                    <mxGeometry x="1120" y="1140" width="60" height="30" as="geometry"/>
                </mxCell>
                <mxCell id="3mtPveJn1evBH_lxr1_l-77" value="" style="shape=flexArrow;endArrow=classic;html=1;fontSize=24;fillColor=#fff2cc;strokeColor=#d6b656;" parent="1" edge="1">
                    <mxGeometry width="50" height="50" relative="1" as="geometry">
                        <mxPoint x="1010" y="1170" as="sourcePoint"/>
                        <mxPoint x="680" y="1310" as="targetPoint"/>
                        <Array as="points">
                            <mxPoint x="1010" y="1240"/>
                            <mxPoint x="1010" y="1310"/>
                            <mxPoint x="920" y="1310"/>
                            <mxPoint x="770" y="1310"/>
                        </Array>
                    </mxGeometry>
                </mxCell>
                <mxCell id="3mtPveJn1evBH_lxr1_l-78" value="isu_byp_mau0" style="text;html=1;strokeColor=none;fillColor=none;align=center;verticalAlign=middle;whiteSpace=wrap;rounded=0;" parent="1" vertex="1">
                    <mxGeometry x="490" y="1370" width="60" height="30" as="geometry"/>
                </mxCell>
                <mxCell id="3mtPveJn1evBH_lxr1_l-79" value="isu_byp_lsu0" style="text;html=1;strokeColor=none;fillColor=none;align=center;verticalAlign=middle;whiteSpace=wrap;rounded=0;" parent="1" vertex="1">
                    <mxGeometry x="490" y="1450" width="60" height="30" as="geometry"/>
                </mxCell>
                <mxCell id="3mtPveJn1evBH_lxr1_l-80" value="" style="shape=flexArrow;endArrow=classic;html=1;fontSize=12;entryX=0;entryY=0.686;entryDx=0;entryDy=0;entryPerimeter=0;" parent="1" target="3mtPveJn1evBH_lxr1_l-65" edge="1">
                    <mxGeometry width="50" height="50" relative="1" as="geometry">
                        <mxPoint x="680" y="1480" as="sourcePoint"/>
                        <mxPoint x="770" y="1540" as="targetPoint"/>
                        <Array as="points">
                            <mxPoint x="720" y="1480"/>
                            <mxPoint x="770" y="1480"/>
                        </Array>
                    </mxGeometry>
                </mxCell>
                <mxCell id="3mtPveJn1evBH_lxr1_l-81" value="" style="shape=flexArrow;endArrow=classic;html=1;fontSize=12;" parent="1" edge="1">
                    <mxGeometry width="50" height="50" relative="1" as="geometry">
                        <mxPoint x="680" y="1440" as="sourcePoint"/>
                        <mxPoint x="910" y="1440" as="targetPoint"/>
                    </mxGeometry>
                </mxCell>
                <mxCell id="3mtPveJn1evBH_lxr1_l-83" value="" style="shape=flexArrow;endArrow=classic;html=1;fontSize=12;exitX=0;exitY=0.128;exitDx=0;exitDy=0;exitPerimeter=0;fillColor=#f8cecc;strokeColor=#b85450;" parent="1" source="3mtPveJn1evBH_lxr1_l-65" edge="1">
                    <mxGeometry width="50" height="50" relative="1" as="geometry">
                        <mxPoint x="930" y="1374.41" as="sourcePoint"/>
                        <mxPoint x="680" y="1374.4099999999999" as="targetPoint"/>
                    </mxGeometry>
                </mxCell>
                <mxCell id="3mtPveJn1evBH_lxr1_l-84" value="lsu_res_ex" style="text;html=1;strokeColor=none;fillColor=none;align=center;verticalAlign=middle;whiteSpace=wrap;rounded=0;fontSize=12;" parent="1" vertex="1">
                    <mxGeometry x="750" y="1340" width="60" height="30" as="geometry"/>
                </mxCell>
                <mxCell id="3mtPveJn1evBH_lxr1_l-85" value="byp_lsu_src1" style="text;html=1;strokeColor=none;fillColor=none;align=center;verticalAlign=middle;whiteSpace=wrap;rounded=0;fontSize=12;" parent="1" vertex="1">
                    <mxGeometry x="750" y="1410" width="60" height="30" as="geometry"/>
                </mxCell>
                <mxCell id="3mtPveJn1evBH_lxr1_l-86" value="byp_lsu_src2" style="text;html=1;strokeColor=none;fillColor=none;align=center;verticalAlign=middle;whiteSpace=wrap;rounded=0;fontSize=12;" parent="1" vertex="1">
                    <mxGeometry x="750" y="1450" width="60" height="30" as="geometry"/>
                </mxCell>
                <mxCell id="3mtPveJn1evBH_lxr1_l-92" value="&lt;font style=&quot;font-size: 24px;&quot;&gt;cpls_conn&lt;/font&gt;" style="rounded=0;whiteSpace=wrap;html=1;fontSize=12;fillColor=#a20025;fontColor=#ffffff;strokeColor=#6F0000;" parent="1" vertex="1">
                    <mxGeometry x="1000" y="1570" width="120" height="80" as="geometry"/>
                </mxCell>
                <mxCell id="3mtPveJn1evBH_lxr1_l-94" value="" style="endArrow=classic;html=1;fontSize=24;entryX=-0.028;entryY=0.944;entryDx=0;entryDy=0;entryPerimeter=0;" parent="1" target="3mtPveJn1evBH_lxr1_l-65" edge="1">
                    <mxGeometry relative="1" as="geometry">
                        <mxPoint x="450" y="1530" as="sourcePoint"/>
                        <mxPoint x="550" y="1530" as="targetPoint"/>
                        <Array as="points">
                            <mxPoint x="770" y="1529"/>
                        </Array>
                    </mxGeometry>
                </mxCell>
                <mxCell id="3mtPveJn1evBH_lxr1_l-95" value="&lt;font style=&quot;font-size: 16px;&quot;&gt;isu_lsu&lt;/font&gt;" style="edgeLabel;resizable=0;html=1;align=center;verticalAlign=middle;fontSize=24;" parent="3mtPveJn1evBH_lxr1_l-94" connectable="0" vertex="1">
                    <mxGeometry relative="1" as="geometry">
                        <mxPoint x="-173" as="offset"/>
                    </mxGeometry>
                </mxCell>
                <mxCell id="3mtPveJn1evBH_lxr1_l-96" value="" style="edgeStyle=none;orthogonalLoop=1;jettySize=auto;html=1;fontSize=16;entryX=-0.013;entryY=0.147;entryDx=0;entryDy=0;entryPerimeter=0;" parent="1" target="3mtPveJn1evBH_lxr1_l-92" edge="1">
                    <mxGeometry width="80" relative="1" as="geometry">
                        <mxPoint x="810" y="1530" as="sourcePoint"/>
                        <mxPoint x="1030" y="1470" as="targetPoint"/>
                        <Array as="points">
                            <mxPoint x="810" y="1582"/>
                        </Array>
                    </mxGeometry>
                </mxCell>
                <mxCell id="3mtPveJn1evBH_lxr1_l-99" value="isu_lsu.piw" style="edgeLabel;html=1;align=center;verticalAlign=middle;resizable=0;points=[];fontSize=12;" parent="3mtPveJn1evBH_lxr1_l-96" vertex="1" connectable="0">
                    <mxGeometry x="-0.3935" y="1" relative="1" as="geometry">
                        <mxPoint x="19" as="offset"/>
                    </mxGeometry>
                </mxCell>
                <mxCell id="3mtPveJn1evBH_lxr1_l-100" value="isu_lsu.cpls_vld" style="edgeLabel;html=1;align=center;verticalAlign=middle;resizable=0;points=[];fontSize=12;" parent="3mtPveJn1evBH_lxr1_l-96" vertex="1" connectable="0">
                    <mxGeometry x="0.5063" relative="1" as="geometry">
                        <mxPoint x="-9" as="offset"/>
                    </mxGeometry>
                </mxCell>
                <mxCell id="3mtPveJn1evBH_lxr1_l-101" value="" style="shape=flexArrow;endArrow=classic;html=1;fontSize=12;entryX=0.5;entryY=1;entryDx=0;entryDy=0;fillColor=#f8cecc;strokeColor=#b85450;" parent="1" target="3mtPveJn1evBH_lxr1_l-61" edge="1">
                    <mxGeometry width="50" height="50" relative="1" as="geometry">
                        <mxPoint x="880" y="1370" as="sourcePoint"/>
                        <mxPoint x="910" y="1240" as="targetPoint"/>
                        <Array as="points"/>
                    </mxGeometry>
                </mxCell>
                <mxCell id="3mtPveJn1evBH_lxr1_l-105" value="" style="shape=flexArrow;endArrow=classic;html=1;fontSize=12;exitX=0;exitY=0.5;exitDx=0;exitDy=0;" parent="1" source="3mtPveJn1evBH_lxr1_l-92" target="3mtPveJn1evBH_lxr1_l-66" edge="1">
                    <mxGeometry width="50" height="50" relative="1" as="geometry">
                        <mxPoint x="990" y="1570" as="sourcePoint"/>
                        <mxPoint x="640" y="1520" as="targetPoint"/>
                        <Array as="points">
                            <mxPoint x="810" y="1610"/>
                            <mxPoint x="640" y="1610"/>
                        </Array>
                    </mxGeometry>
                </mxCell>
                <mxCell id="3mtPveJn1evBH_lxr1_l-109" style="edgeStyle=none;html=1;exitX=0.5;exitY=0;exitDx=0;exitDy=0;entryX=0.5;entryY=0;entryDx=0;entryDy=0;fontSize=12;" parent="1" source="3mtPveJn1evBH_lxr1_l-106" target="3mtPveJn1evBH_lxr1_l-108" edge="1">
                    <mxGeometry relative="1" as="geometry"/>
                </mxCell>
                <mxCell id="3mtPveJn1evBH_lxr1_l-106" value="mux" style="shape=trapezoid;perimeter=trapezoidPerimeter;whiteSpace=wrap;html=1;fixedSize=1;fontSize=12;rotation=90;" parent="1" vertex="1">
                    <mxGeometry x="900" y="1440" width="60" height="30" as="geometry"/>
                </mxCell>
                <mxCell id="3mtPveJn1evBH_lxr1_l-110" style="edgeStyle=none;html=1;exitX=1;exitY=0.5;exitDx=0;exitDy=0;entryX=0.006;entryY=0.135;entryDx=0;entryDy=0;entryPerimeter=0;fontSize=12;" parent="1" source="3mtPveJn1evBH_lxr1_l-108" target="3mtPveJn1evBH_lxr1_l-65" edge="1">
                    <mxGeometry relative="1" as="geometry">
                        <Array as="points">
                            <mxPoint x="995" y="1400"/>
                            <mxPoint x="995" y="1376"/>
                        </Array>
                    </mxGeometry>
                </mxCell>
                <mxCell id="3mtPveJn1evBH_lxr1_l-108" value="EDFFR" style="rounded=1;whiteSpace=wrap;html=1;fontSize=12;rotation=-90;" parent="1" vertex="1">
                    <mxGeometry x="970" y="1445" width="50" height="20" as="geometry"/>
                </mxCell>
                <mxCell id="3mtPveJn1evBH_lxr1_l-115" value="cpls_byp_stdata" style="text;html=1;strokeColor=none;fillColor=none;align=center;verticalAlign=middle;whiteSpace=wrap;rounded=0;fontSize=12;" parent="1" vertex="1">
                    <mxGeometry x="800" y="1610" width="60" height="30" as="geometry"/>
                </mxCell>
                <mxCell id="3mtPveJn1evBH_lxr1_l-116" value="" style="shape=flexArrow;endArrow=classic;html=1;fontSize=12;fillColor=#dae8fc;strokeColor=#6c8ebf;" parent="1" edge="1">
                    <mxGeometry width="50" height="50" relative="1" as="geometry">
                        <mxPoint x="750" y="1700" as="sourcePoint"/>
                        <mxPoint x="1059.57" y="1650" as="targetPoint"/>
                        <Array as="points">
                            <mxPoint x="1060" y="1700"/>
                        </Array>
                    </mxGeometry>
                </mxCell>
                <mxCell id="3mtPveJn1evBH_lxr1_l-117" value="load_data_ex" style="text;html=1;strokeColor=none;fillColor=none;align=center;verticalAlign=middle;whiteSpace=wrap;rounded=0;fontSize=12;" parent="1" vertex="1">
                    <mxGeometry x="750" y="1670" width="80" height="30" as="geometry"/>
                </mxCell>
                <mxCell id="3mtPveJn1evBH_lxr1_l-119" value="" style="shape=flexArrow;endArrow=classic;html=1;fontSize=12;fillColor=#dae8fc;strokeColor=#6c8ebf;" parent="1" edge="1">
                    <mxGeometry width="50" height="50" relative="1" as="geometry">
                        <mxPoint x="610" y="1520" as="sourcePoint"/>
                        <mxPoint x="610" y="1650" as="targetPoint"/>
                    </mxGeometry>
                </mxCell>
                <mxCell id="3mtPveJn1evBH_lxr1_l-120" value="store_data_ex" style="text;html=1;strokeColor=none;fillColor=none;align=center;verticalAlign=middle;whiteSpace=wrap;rounded=0;fontSize=12;rotation=90;" parent="1" vertex="1">
                    <mxGeometry x="560" y="1570" width="60" height="30" as="geometry"/>
                </mxCell>
                <mxCell id="3mtPveJn1evBH_lxr1_l-124" style="edgeStyle=none;html=1;fontSize=12;" parent="1" source="3mtPveJn1evBH_lxr1_l-121" edge="1">
                    <mxGeometry relative="1" as="geometry">
                        <mxPoint x="610" y="1520" as="targetPoint"/>
                        <Array as="points">
                            <mxPoint x="610" y="1478"/>
                        </Array>
                    </mxGeometry>
                </mxCell>
                <mxCell id="3mtPveJn1evBH_lxr1_l-121" value="mux" style="shape=trapezoid;perimeter=trapezoidPerimeter;whiteSpace=wrap;html=1;fixedSize=1;fontSize=12;rotation=-90;" parent="1" vertex="1">
                    <mxGeometry x="600" y="1465" width="50" height="25" as="geometry"/>
                </mxCell>
                <mxCell id="3mtPveJn1evBH_lxr1_l-123" value="" style="endArrow=classic;html=1;fontSize=12;entryX=0.25;entryY=1;entryDx=0;entryDy=0;exitX=0.5;exitY=1;exitDx=0;exitDy=0;" parent="1" source="3mtPveJn1evBH_lxr1_l-66" target="3mtPveJn1evBH_lxr1_l-121" edge="1">
                    <mxGeometry width="50" height="50" relative="1" as="geometry">
                        <mxPoint x="690" y="1590" as="sourcePoint"/>
                        <mxPoint x="740" y="1540" as="targetPoint"/>
                        <Array as="points">
                            <mxPoint x="640" y="1510"/>
                            <mxPoint x="660" y="1510"/>
                            <mxPoint x="660" y="1490"/>
                            <mxPoint x="650" y="1490"/>
                        </Array>
                    </mxGeometry>
                </mxCell>
                <mxCell id="3mtPveJn1evBH_lxr1_l-126" value="" style="endArrow=classic;html=1;fontSize=12;" parent="1" edge="1">
                    <mxGeometry width="50" height="50" relative="1" as="geometry">
                        <mxPoint x="670" y="1477.34" as="sourcePoint"/>
                        <mxPoint x="640" y="1477.34" as="targetPoint"/>
                    </mxGeometry>
                </mxCell>
                <mxCell id="3mtPveJn1evBH_lxr1_l-127" value="" style="endArrow=classic;html=1;fontSize=12;" parent="1" edge="1">
                    <mxGeometry width="50" height="50" relative="1" as="geometry">
                        <mxPoint x="670" y="1464.68" as="sourcePoint"/>
                        <mxPoint x="640" y="1464.68" as="targetPoint"/>
                    </mxGeometry>
                </mxCell>
                <mxCell id="3mtPveJn1evBH_lxr1_l-128" value="" style="shape=flexArrow;endArrow=classic;html=1;fontSize=12;exitX=0.083;exitY=0;exitDx=0;exitDy=0;exitPerimeter=0;fillColor=#dae8fc;strokeColor=#6c8ebf;" parent="1" source="3mtPveJn1evBH_lxr1_l-65" edge="1">
                    <mxGeometry width="50" height="50" relative="1" as="geometry">
                        <mxPoint x="920" y="1330" as="sourcePoint"/>
                        <mxPoint x="1170" y="1330" as="targetPoint"/>
                        <Array as="points">
                            <mxPoint x="920" y="1330"/>
                        </Array>
                    </mxGeometry>
                </mxCell>
                <mxCell id="3mtPveJn1evBH_lxr1_l-129" value="lppkt0_ag" style="text;html=1;strokeColor=none;fillColor=none;align=center;verticalAlign=middle;whiteSpace=wrap;rounded=0;fontSize=12;" parent="1" vertex="1">
                    <mxGeometry x="1050" y="1300" width="60" height="30" as="geometry"/>
                </mxCell>
                <mxCell id="3mtPveJn1evBH_lxr1_l-130" value="" style="shape=table;startSize=0;container=1;collapsible=0;childLayout=tableLayout;fontSize=12;" parent="1" vertex="1">
                    <mxGeometry x="410" y="2100" width="330" height="40" as="geometry"/>
                </mxCell>
                <mxCell id="3mtPveJn1evBH_lxr1_l-131" value="" style="shape=tableRow;horizontal=0;startSize=0;swimlaneHead=0;swimlaneBody=0;top=0;left=0;bottom=0;right=0;collapsible=0;dropTarget=0;fillColor=none;points=[[0,0.5],[1,0.5]];portConstraint=eastwest;fontSize=12;" parent="3mtPveJn1evBH_lxr1_l-130" vertex="1">
                    <mxGeometry width="330" height="40" as="geometry"/>
                </mxCell>
                <mxCell id="3mtPveJn1evBH_lxr1_l-132" value="cpls_req" style="shape=partialRectangle;html=1;whiteSpace=wrap;connectable=0;overflow=hidden;fillColor=none;top=0;left=0;bottom=0;right=0;pointerEvents=1;fontSize=12;" parent="3mtPveJn1evBH_lxr1_l-131" vertex="1">
                    <mxGeometry width="83" height="40" as="geometry">
                        <mxRectangle width="83" height="40" as="alternateBounds"/>
                    </mxGeometry>
                </mxCell>
                <mxCell id="3mtPveJn1evBH_lxr1_l-133" value="ldst_size" style="shape=partialRectangle;html=1;whiteSpace=wrap;connectable=0;overflow=hidden;fillColor=none;top=0;left=0;bottom=0;right=0;pointerEvents=1;fontSize=12;" parent="3mtPveJn1evBH_lxr1_l-131" vertex="1">
                    <mxGeometry x="83" width="82" height="40" as="geometry">
                        <mxRectangle width="82" height="40" as="alternateBounds"/>
                    </mxGeometry>
                </mxCell>
                <mxCell id="3mtPveJn1evBH_lxr1_l-134" value="imm" style="shape=partialRectangle;html=1;whiteSpace=wrap;connectable=0;overflow=hidden;fillColor=#f8cecc;top=0;left=0;bottom=0;right=0;pointerEvents=1;fontSize=12;strokeColor=#b85450;" parent="3mtPveJn1evBH_lxr1_l-131" vertex="1">
                    <mxGeometry x="165" width="83" height="40" as="geometry">
                        <mxRectangle width="83" height="40" as="alternateBounds"/>
                    </mxGeometry>
                </mxCell>
                <mxCell id="3mtPveJn1evBH_lxr1_l-135" value="load_data_ex" style="shape=partialRectangle;html=1;whiteSpace=wrap;connectable=0;overflow=hidden;fillColor=none;top=0;left=0;bottom=0;right=0;pointerEvents=1;fontSize=12;" parent="3mtPveJn1evBH_lxr1_l-131" vertex="1">
                    <mxGeometry x="248" width="82" height="40" as="geometry">
                        <mxRectangle width="82" height="40" as="alternateBounds"/>
                    </mxGeometry>
                </mxCell>
                <mxCell id="3mtPveJn1evBH_lxr1_l-136" value="zsp_cpls" style="text;html=1;strokeColor=none;fillColor=none;align=center;verticalAlign=middle;whiteSpace=wrap;rounded=0;fontSize=12;" parent="1" vertex="1">
                    <mxGeometry x="340" y="2070" width="60" height="30" as="geometry"/>
                </mxCell>
                <mxCell id="3mtPveJn1evBH_lxr1_l-138" style="edgeStyle=none;html=1;entryX=0.092;entryY=1.035;entryDx=0;entryDy=0;entryPerimeter=0;fontSize=12;" parent="1" source="3mtPveJn1evBH_lxr1_l-137" target="3mtPveJn1evBH_lxr1_l-131" edge="1">
                    <mxGeometry relative="1" as="geometry"/>
                </mxCell>
                <mxCell id="3mtPveJn1evBH_lxr1_l-137" value="cpld16&amp;nbsp;" style="text;html=1;strokeColor=none;fillColor=none;align=center;verticalAlign=middle;whiteSpace=wrap;rounded=0;fontSize=12;" parent="1" vertex="1">
                    <mxGeometry x="410" y="2200" width="60" height="30" as="geometry"/>
                </mxCell>
                <mxCell id="3mtPveJn1evBH_lxr1_l-140" value="aY32" style="text;html=1;strokeColor=none;fillColor=none;align=center;verticalAlign=middle;whiteSpace=wrap;rounded=0;fontSize=12;" parent="1" vertex="1">
                    <mxGeometry x="500" y="2200" width="60" height="30" as="geometry"/>
                </mxCell>
                <mxCell id="3mtPveJn1evBH_lxr1_l-146" style="edgeStyle=none;html=1;exitX=0.5;exitY=0;exitDx=0;exitDy=0;fontSize=12;" parent="1" source="3mtPveJn1evBH_lxr1_l-141" edge="1">
                    <mxGeometry relative="1" as="geometry">
                        <mxPoint x="624.8888888888889" y="2170" as="targetPoint"/>
                    </mxGeometry>
                </mxCell>
                <mxCell id="3mtPveJn1evBH_lxr1_l-141" value="IMM5S" style="text;html=1;strokeColor=none;fillColor=none;align=center;verticalAlign=middle;whiteSpace=wrap;rounded=0;fontSize=12;" parent="1" vertex="1">
                    <mxGeometry x="595" y="2200" width="60" height="30" as="geometry"/>
                </mxCell>
                <mxCell id="3mtPveJn1evBH_lxr1_l-143" style="edgeStyle=none;html=1;entryX=0.622;entryY=0.98;entryDx=0;entryDy=0;entryPerimeter=0;fontSize=12;" parent="1" source="3mtPveJn1evBH_lxr1_l-142" target="3mtPveJn1evBH_lxr1_l-131" edge="1">
                    <mxGeometry relative="1" as="geometry">
                        <Array as="points">
                            <mxPoint x="710" y="2180"/>
                            <mxPoint x="615" y="2180"/>
                        </Array>
                    </mxGeometry>
                </mxCell>
                <mxCell id="3mtPveJn1evBH_lxr1_l-142" value="IMM10" style="text;html=1;strokeColor=none;fillColor=none;align=center;verticalAlign=middle;whiteSpace=wrap;rounded=0;fontSize=12;" parent="1" vertex="1">
                    <mxGeometry x="680" y="2200" width="60" height="30" as="geometry"/>
                </mxCell>
                <mxCell id="3mtPveJn1evBH_lxr1_l-144" value="" style="endArrow=classic;html=1;fontSize=12;" parent="1" edge="1">
                    <mxGeometry width="50" height="50" relative="1" as="geometry">
                        <mxPoint x="440" y="2160" as="sourcePoint"/>
                        <mxPoint x="530" y="2140" as="targetPoint"/>
                        <Array as="points">
                            <mxPoint x="530" y="2160"/>
                        </Array>
                    </mxGeometry>
                </mxCell>
                <mxCell id="3mtPveJn1evBH_lxr1_l-145" value="" style="endArrow=classic;html=1;fontSize=12;exitX=0.5;exitY=0;exitDx=0;exitDy=0;" parent="1" source="3mtPveJn1evBH_lxr1_l-140" edge="1">
                    <mxGeometry width="50" height="50" relative="1" as="geometry">
                        <mxPoint x="540" y="2190" as="sourcePoint"/>
                        <mxPoint x="690" y="2140" as="targetPoint"/>
                        <Array as="points">
                            <mxPoint x="530" y="2170"/>
                            <mxPoint x="540" y="2170"/>
                            <mxPoint x="690" y="2170"/>
                        </Array>
                    </mxGeometry>
                </mxCell>
                <mxCell id="3mtPveJn1evBH_lxr1_l-153" style="edgeStyle=none;html=1;entryX=0.088;entryY=-0.002;entryDx=0;entryDy=0;entryPerimeter=0;fontSize=12;" parent="1" source="3mtPveJn1evBH_lxr1_l-147" target="3mtPveJn1evBH_lxr1_l-131" edge="1">
                    <mxGeometry relative="1" as="geometry"/>
                </mxCell>
                <mxCell id="3mtPveJn1evBH_lxr1_l-147" value="cpst16" style="text;html=1;strokeColor=none;fillColor=none;align=center;verticalAlign=middle;whiteSpace=wrap;rounded=0;fontSize=12;" parent="1" vertex="1">
                    <mxGeometry x="410" y="2030" width="60" height="30" as="geometry"/>
                </mxCell>
                <mxCell id="3mtPveJn1evBH_lxr1_l-148" value="aY32" style="text;html=1;strokeColor=none;fillColor=none;align=center;verticalAlign=middle;whiteSpace=wrap;rounded=0;fontSize=12;" parent="1" vertex="1">
                    <mxGeometry x="510" y="2030" width="60" height="30" as="geometry"/>
                </mxCell>
                <mxCell id="3mtPveJn1evBH_lxr1_l-150" value="IMM5S" style="text;html=1;strokeColor=none;fillColor=none;align=center;verticalAlign=middle;whiteSpace=wrap;rounded=0;fontSize=12;" parent="1" vertex="1">
                    <mxGeometry x="600" y="2030" width="60" height="30" as="geometry"/>
                </mxCell>
                <mxCell id="3mtPveJn1evBH_lxr1_l-152" style="edgeStyle=none;html=1;entryX=0.633;entryY=-0.039;entryDx=0;entryDy=0;entryPerimeter=0;fontSize=12;exitX=0.5;exitY=1;exitDx=0;exitDy=0;" parent="1" source="3mtPveJn1evBH_lxr1_l-151" target="3mtPveJn1evBH_lxr1_l-131" edge="1">
                    <mxGeometry relative="1" as="geometry">
                        <Array as="points">
                            <mxPoint x="710" y="2070"/>
                            <mxPoint x="620" y="2070"/>
                        </Array>
                    </mxGeometry>
                </mxCell>
                <mxCell id="3mtPveJn1evBH_lxr1_l-151" value="IMM10" style="text;html=1;strokeColor=none;fillColor=none;align=center;verticalAlign=middle;whiteSpace=wrap;rounded=0;fontSize=12;" parent="1" vertex="1">
                    <mxGeometry x="680" y="2030" width="60" height="30" as="geometry"/>
                </mxCell>
                <mxCell id="3mtPveJn1evBH_lxr1_l-154" value="" style="endArrow=classic;html=1;fontSize=12;entryX=0.357;entryY=-0.057;entryDx=0;entryDy=0;entryPerimeter=0;" parent="1" target="3mtPveJn1evBH_lxr1_l-131" edge="1">
                    <mxGeometry width="50" height="50" relative="1" as="geometry">
                        <mxPoint x="440" y="2070" as="sourcePoint"/>
                        <mxPoint x="520" y="1960" as="targetPoint"/>
                        <Array as="points">
                            <mxPoint x="528" y="2070"/>
                        </Array>
                    </mxGeometry>
                </mxCell>
                <mxCell id="3mtPveJn1evBH_lxr1_l-157" style="edgeStyle=none;html=1;entryX=0.5;entryY=0;entryDx=0;entryDy=0;fontSize=12;" parent="1" source="3mtPveJn1evBH_lxr1_l-155" target="3mtPveJn1evBH_lxr1_l-148" edge="1">
                    <mxGeometry relative="1" as="geometry">
                        <Array as="points">
                            <mxPoint x="540" y="2005"/>
                        </Array>
                    </mxGeometry>
                </mxCell>
                <mxCell id="3mtPveJn1evBH_lxr1_l-155" value="cpls_byp_stdata" style="text;html=1;strokeColor=#d6b656;fillColor=#fff2cc;align=center;verticalAlign=middle;whiteSpace=wrap;rounded=0;fontSize=12;" parent="1" vertex="1">
                    <mxGeometry x="745" y="1990" width="90" height="30" as="geometry"/>
                </mxCell>
                <mxCell id="3mtPveJn1evBH_lxr1_l-158" value="" style="endArrow=classic;html=1;fontSize=12;" parent="1" edge="1">
                    <mxGeometry width="50" height="50" relative="1" as="geometry">
                        <mxPoint x="630" y="2010" as="sourcePoint"/>
                        <mxPoint x="630.16" y="2030" as="targetPoint"/>
                    </mxGeometry>
                </mxCell>
                <mxCell id="3mtPveJn1evBH_lxr1_l-171" value="" style="shape=table;startSize=0;container=1;collapsible=0;childLayout=tableLayout;fontSize=12;" parent="1" vertex="1">
                    <mxGeometry x="320" y="2640" width="300" height="40" as="geometry"/>
                </mxCell>
                <mxCell id="3mtPveJn1evBH_lxr1_l-172" value="" style="shape=tableRow;horizontal=0;startSize=0;swimlaneHead=0;swimlaneBody=0;top=0;left=0;bottom=0;right=0;collapsible=0;dropTarget=0;fillColor=none;points=[[0,0.5],[1,0.5]];portConstraint=eastwest;fontSize=12;" parent="3mtPveJn1evBH_lxr1_l-171" vertex="1">
                    <mxGeometry width="300" height="40" as="geometry"/>
                </mxCell>
                <mxCell id="3mtPveJn1evBH_lxr1_l-173" value="cmd" style="shape=partialRectangle;html=1;whiteSpace=wrap;connectable=0;overflow=hidden;fillColor=none;top=0;left=0;bottom=0;right=0;pointerEvents=1;fontSize=12;" parent="3mtPveJn1evBH_lxr1_l-172" vertex="1">
                    <mxGeometry width="60" height="40" as="geometry">
                        <mxRectangle width="60" height="40" as="alternateBounds"/>
                    </mxGeometry>
                </mxCell>
                <mxCell id="3mtPveJn1evBH_lxr1_l-174" value="imm" style="shape=partialRectangle;html=1;whiteSpace=wrap;connectable=0;overflow=hidden;fillColor=none;top=0;left=0;bottom=0;right=0;pointerEvents=1;fontSize=12;" parent="3mtPveJn1evBH_lxr1_l-172" vertex="1">
                    <mxGeometry x="60" width="60" height="40" as="geometry">
                        <mxRectangle width="60" height="40" as="alternateBounds"/>
                    </mxGeometry>
                </mxCell>
                <mxCell id="3mtPveJn1evBH_lxr1_l-175" value="src1" style="shape=partialRectangle;html=1;whiteSpace=wrap;connectable=0;overflow=hidden;fillColor=none;top=0;left=0;bottom=0;right=0;pointerEvents=1;fontSize=12;" parent="3mtPveJn1evBH_lxr1_l-172" vertex="1">
                    <mxGeometry x="120" width="60" height="40" as="geometry">
                        <mxRectangle width="60" height="40" as="alternateBounds"/>
                    </mxGeometry>
                </mxCell>
                <mxCell id="3mtPveJn1evBH_lxr1_l-176" value="src2" style="shape=partialRectangle;html=1;whiteSpace=wrap;connectable=0;overflow=hidden;fillColor=none;top=0;left=0;bottom=0;right=0;pointerEvents=1;fontSize=12;" parent="3mtPveJn1evBH_lxr1_l-172" vertex="1">
                    <mxGeometry x="180" width="60" height="40" as="geometry">
                        <mxRectangle width="60" height="40" as="alternateBounds"/>
                    </mxGeometry>
                </mxCell>
                <mxCell id="3mtPveJn1evBH_lxr1_l-177" value="asrc_ex" style="shape=partialRectangle;html=1;whiteSpace=wrap;connectable=0;overflow=hidden;fillColor=none;top=0;left=0;bottom=0;right=0;pointerEvents=1;fontSize=12;" parent="3mtPveJn1evBH_lxr1_l-172" vertex="1">
                    <mxGeometry x="240" width="60" height="40" as="geometry">
                        <mxRectangle width="60" height="40" as="alternateBounds"/>
                    </mxGeometry>
                </mxCell>
                <mxCell id="3mtPveJn1evBH_lxr1_l-187" style="edgeStyle=none;html=1;entryX=0.098;entryY=1.069;entryDx=0;entryDy=0;entryPerimeter=0;fontSize=12;" parent="1" source="3mtPveJn1evBH_lxr1_l-178" target="3mtPveJn1evBH_lxr1_l-172" edge="1">
                    <mxGeometry relative="1" as="geometry"/>
                </mxCell>
                <mxCell id="3mtPveJn1evBH_lxr1_l-178" value="cpcoma40" style="text;html=1;strokeColor=none;fillColor=none;align=center;verticalAlign=middle;whiteSpace=wrap;rounded=0;fontSize=12;" parent="1" vertex="1">
                    <mxGeometry x="320" y="2730" width="60" height="30" as="geometry"/>
                </mxCell>
                <mxCell id="3mtPveJn1evBH_lxr1_l-179" value="rZ40" style="text;html=1;strokeColor=none;fillColor=none;align=center;verticalAlign=middle;whiteSpace=wrap;rounded=0;fontSize=12;" parent="1" vertex="1">
                    <mxGeometry x="390" y="2730" width="60" height="30" as="geometry"/>
                </mxCell>
                <mxCell id="3mtPveJn1evBH_lxr1_l-184" style="edgeStyle=none;html=1;exitX=0.5;exitY=0;exitDx=0;exitDy=0;entryX=0.535;entryY=1.052;entryDx=0;entryDy=0;entryPerimeter=0;fontSize=12;" parent="1" source="3mtPveJn1evBH_lxr1_l-180" target="3mtPveJn1evBH_lxr1_l-172" edge="1">
                    <mxGeometry relative="1" as="geometry"/>
                </mxCell>
                <mxCell id="3mtPveJn1evBH_lxr1_l-180" value="rX40" style="text;html=1;strokeColor=none;fillColor=none;align=center;verticalAlign=middle;whiteSpace=wrap;rounded=0;fontSize=12;" parent="1" vertex="1">
                    <mxGeometry x="450" y="2730" width="60" height="30" as="geometry"/>
                </mxCell>
                <mxCell id="3mtPveJn1evBH_lxr1_l-185" style="edgeStyle=none;html=1;exitX=0.5;exitY=0;exitDx=0;exitDy=0;entryX=0.733;entryY=1.052;entryDx=0;entryDy=0;entryPerimeter=0;fontSize=12;" parent="1" source="3mtPveJn1evBH_lxr1_l-181" target="3mtPveJn1evBH_lxr1_l-172" edge="1">
                    <mxGeometry relative="1" as="geometry"/>
                </mxCell>
                <mxCell id="3mtPveJn1evBH_lxr1_l-181" value="rY40" style="text;html=1;strokeColor=none;fillColor=none;align=center;verticalAlign=middle;whiteSpace=wrap;rounded=0;fontSize=12;" parent="1" vertex="1">
                    <mxGeometry x="510" y="2730" width="60" height="30" as="geometry"/>
                </mxCell>
                <mxCell id="3mtPveJn1evBH_lxr1_l-183" style="edgeStyle=none;html=1;entryX=0.282;entryY=1.034;entryDx=0;entryDy=0;entryPerimeter=0;fontSize=12;" parent="1" source="3mtPveJn1evBH_lxr1_l-182" target="3mtPveJn1evBH_lxr1_l-172" edge="1">
                    <mxGeometry relative="1" as="geometry">
                        <Array as="points">
                            <mxPoint x="600" y="2700"/>
                            <mxPoint x="405" y="2700"/>
                        </Array>
                    </mxGeometry>
                </mxCell>
                <mxCell id="3mtPveJn1evBH_lxr1_l-182" value="IMM8" style="text;html=1;strokeColor=none;fillColor=none;align=center;verticalAlign=middle;whiteSpace=wrap;rounded=0;fontSize=12;" parent="1" vertex="1">
                    <mxGeometry x="570" y="2730" width="60" height="30" as="geometry"/>
                </mxCell>
                <mxCell id="3mtPveJn1evBH_lxr1_l-186" value="" style="endArrow=classic;startArrow=classic;html=1;fontSize=12;entryX=0.896;entryY=1.086;entryDx=0;entryDy=0;entryPerimeter=0;" parent="1" target="3mtPveJn1evBH_lxr1_l-172" edge="1">
                    <mxGeometry width="50" height="50" relative="1" as="geometry">
                        <mxPoint x="420" y="2740" as="sourcePoint"/>
                        <mxPoint x="470" y="2690" as="targetPoint"/>
                        <Array as="points">
                            <mxPoint x="420" y="2710"/>
                            <mxPoint x="589" y="2710"/>
                        </Array>
                    </mxGeometry>
                </mxCell>
                <mxCell id="3mtPveJn1evBH_lxr1_l-191" style="edgeStyle=none;html=1;entryX=0.103;entryY=-0.052;entryDx=0;entryDy=0;entryPerimeter=0;fontSize=12;" parent="1" source="3mtPveJn1evBH_lxr1_l-188" target="3mtPveJn1evBH_lxr1_l-172" edge="1">
                    <mxGeometry relative="1" as="geometry"/>
                </mxCell>
                <mxCell id="3mtPveJn1evBH_lxr1_l-188" value="cpin40" style="text;html=1;strokeColor=none;fillColor=none;align=center;verticalAlign=middle;whiteSpace=wrap;rounded=0;fontSize=12;" parent="1" vertex="1">
                    <mxGeometry x="320" y="2560" width="60" height="30" as="geometry"/>
                </mxCell>
                <mxCell id="3mtPveJn1evBH_lxr1_l-189" value="rZ40" style="text;html=1;strokeColor=none;fillColor=none;align=center;verticalAlign=middle;whiteSpace=wrap;rounded=0;fontSize=12;" parent="1" vertex="1">
                    <mxGeometry x="400" y="2560" width="60" height="30" as="geometry"/>
                </mxCell>
                <mxCell id="3mtPveJn1evBH_lxr1_l-192" style="edgeStyle=none;html=1;entryX=0.298;entryY=-0.017;entryDx=0;entryDy=0;entryPerimeter=0;fontSize=12;" parent="1" source="3mtPveJn1evBH_lxr1_l-190" target="3mtPveJn1evBH_lxr1_l-172" edge="1">
                    <mxGeometry relative="1" as="geometry">
                        <Array as="points">
                            <mxPoint x="510" y="2610"/>
                            <mxPoint x="409" y="2610"/>
                        </Array>
                    </mxGeometry>
                </mxCell>
                <mxCell id="3mtPveJn1evBH_lxr1_l-190" value="IMM18" style="text;html=1;strokeColor=none;fillColor=none;align=center;verticalAlign=middle;whiteSpace=wrap;rounded=0;fontSize=12;" parent="1" vertex="1">
                    <mxGeometry x="480" y="2560" width="60" height="30" as="geometry"/>
                </mxCell>
            </root>
        </mxGraphModel>
    </diagram>
    <diagram id="fMXRtYDmaf-aj7egoArv" name="Page-4">
        <mxGraphModel dx="1370" dy="792" grid="0" gridSize="10" guides="1" tooltips="1" connect="1" arrows="1" fold="1" page="1" pageScale="1" pageWidth="3300" pageHeight="4681" math="0" shadow="0">
            <root>
                <mxCell id="0"/>
                <mxCell id="1" parent="0"/>
                <mxCell id="1Fj0AVMtVTfy4fjX2Mco-1" value="mycoprocessor" style="swimlane;fontStyle=1;align=center;verticalAlign=top;childLayout=stackLayout;horizontal=1;startSize=26;horizontalStack=0;resizeParent=1;resizeParentMax=0;resizeLast=0;collapsible=1;marginBottom=0;fontSize=12;" parent="1" vertex="1">
                    <mxGeometry x="810" y="270" width="180" height="260" as="geometry">
                        <mxRectangle x="430" y="260" width="130" height="30" as="alternateBounds"/>
                    </mxGeometry>
                </mxCell>
                <mxCell id="1Fj0AVMtVTfy4fjX2Mco-3" value="" style="line;strokeWidth=1;fillColor=none;align=left;verticalAlign=middle;spacingTop=-1;spacingLeft=3;spacingRight=3;rotatable=0;labelPosition=right;points=[];portConstraint=eastwest;strokeColor=inherit;fontSize=12;" parent="1Fj0AVMtVTfy4fjX2Mco-1" vertex="1">
                    <mxGeometry y="26" width="180" height="8" as="geometry"/>
                </mxCell>
                <mxCell id="1Fj0AVMtVTfy4fjX2Mco-4" value="reset()&#10;clock()&#10;doCommand()&#10;getCycle()&#10;getInsn()&#10;getPC()&#10;getMemData()&#10;...&#10;" style="text;strokeColor=none;fillColor=none;align=left;verticalAlign=top;spacingLeft=4;spacingRight=4;overflow=hidden;rotatable=0;points=[[0,0.5],[1,0.5]];portConstraint=eastwest;fontSize=12;" parent="1Fj0AVMtVTfy4fjX2Mco-1" vertex="1">
                    <mxGeometry y="34" width="180" height="226" as="geometry"/>
                </mxCell>
                <mxCell id="1Fj0AVMtVTfy4fjX2Mco-11" value="UserClass" style="swimlane;fontStyle=1;align=center;verticalAlign=top;childLayout=stackLayout;horizontal=1;startSize=26;horizontalStack=0;resizeParent=1;resizeParentMax=0;resizeLast=0;collapsible=1;marginBottom=0;fontSize=12;" parent="1" vertex="1">
                    <mxGeometry x="490" y="319" width="160" height="134" as="geometry"/>
                </mxCell>
                <mxCell id="1Fj0AVMtVTfy4fjX2Mco-13" value="" style="line;strokeWidth=1;fillColor=none;align=left;verticalAlign=middle;spacingTop=-1;spacingLeft=3;spacingRight=3;rotatable=0;labelPosition=right;points=[];portConstraint=eastwest;strokeColor=inherit;fontSize=12;" parent="1Fj0AVMtVTfy4fjX2Mco-11" vertex="1">
                    <mxGeometry y="26" width="160" height="8" as="geometry"/>
                </mxCell>
                <mxCell id="1Fj0AVMtVTfy4fjX2Mco-14" value="reset()&#10;clock()&#10;process_inst_ex()&#10;process_inst_ex2()&#10;   process_ldinst_ex()&#10;   process_stinst_ex()  " style="text;strokeColor=none;fillColor=none;align=left;verticalAlign=top;spacingLeft=4;spacingRight=4;overflow=hidden;rotatable=0;points=[[0,0.5],[1,0.5]];portConstraint=eastwest;fontSize=12;" parent="1Fj0AVMtVTfy4fjX2Mco-11" vertex="1">
                    <mxGeometry y="34" width="160" height="100" as="geometry"/>
                </mxCell>
                <mxCell id="1Fj0AVMtVTfy4fjX2Mco-15" value="" style="endArrow=open;endFill=1;endSize=12;html=1;fontSize=12;" parent="1" edge="1">
                    <mxGeometry width="160" relative="1" as="geometry">
                        <mxPoint x="650" y="360" as="sourcePoint"/>
                        <mxPoint x="810" y="360" as="targetPoint"/>
                    </mxGeometry>
                </mxCell>
                <mxCell id="1Fj0AVMtVTfy4fjX2Mco-16" value="" style="endArrow=open;endFill=1;endSize=12;html=1;fontSize=12;exitX=0;exitY=0.42;exitDx=0;exitDy=0;exitPerimeter=0;" parent="1" source="1Fj0AVMtVTfy4fjX2Mco-4" edge="1">
                    <mxGeometry width="160" relative="1" as="geometry">
                        <mxPoint x="790" y="400" as="sourcePoint"/>
                        <mxPoint x="650" y="400" as="targetPoint"/>
                    </mxGeometry>
                </mxCell>
                <mxCell id="1Fj0AVMtVTfy4fjX2Mco-17" value="call" style="text;html=1;strokeColor=none;fillColor=none;align=center;verticalAlign=middle;whiteSpace=wrap;rounded=0;fontSize=12;" parent="1" vertex="1">
                    <mxGeometry x="690" y="400" width="60" height="20" as="geometry"/>
                </mxCell>
                <mxCell id="1Fj0AVMtVTfy4fjX2Mco-18" value="callback" style="text;html=1;strokeColor=none;fillColor=none;align=center;verticalAlign=middle;whiteSpace=wrap;rounded=0;fontSize=12;" parent="1" vertex="1">
                    <mxGeometry x="690" y="340" width="60" height="18" as="geometry"/>
                </mxCell>
            </root>
        </mxGraphModel>
    </diagram>
    <diagram id="pDZPt2OERqsVgwp6Fb_M" name="nano subsys">
        <mxGraphModel dx="1121" dy="546" grid="1" gridSize="10" guides="1" tooltips="1" connect="1" arrows="1" fold="1" page="1" pageScale="1" pageWidth="3300" pageHeight="4681" math="0" shadow="0">
            <root>
                <mxCell id="0"/>
                <mxCell id="1" parent="0"/>
                <mxCell id="X8GoYuU4JnJ5wo5cK5ei-5" value="" style="rounded=0;whiteSpace=wrap;html=1;" vertex="1" parent="1">
                    <mxGeometry x="280" y="240" width="720" height="480" as="geometry"/>
                </mxCell>
                <mxCell id="X8GoYuU4JnJ5wo5cK5ei-1" value="" style="rounded=0;whiteSpace=wrap;html=1;" vertex="1" parent="1">
                    <mxGeometry x="770" y="290" width="100" height="210" as="geometry"/>
                </mxCell>
                <mxCell id="X8GoYuU4JnJ5wo5cK5ei-6" style="edgeStyle=none;html=1;entryX=0;entryY=0.25;entryDx=0;entryDy=0;" edge="1" parent="1" source="X8GoYuU4JnJ5wo5cK5ei-2" target="X8GoYuU4JnJ5wo5cK5ei-1">
                    <mxGeometry relative="1" as="geometry">
                        <Array as="points">
                            <mxPoint x="605" y="340"/>
                        </Array>
                    </mxGeometry>
                </mxCell>
                <mxCell id="X8GoYuU4JnJ5wo5cK5ei-2" value="ahb_bfm_master_lite_wrapper" style="rounded=1;whiteSpace=wrap;html=1;" vertex="1" parent="1">
                    <mxGeometry x="520" y="170" width="170" height="60" as="geometry"/>
                </mxCell>
                <mxCell id="X8GoYuU4JnJ5wo5cK5ei-4" style="edgeStyle=none;html=1;entryX=-0.012;entryY=0.125;entryDx=0;entryDy=0;entryPerimeter=0;" edge="1" parent="1" source="X8GoYuU4JnJ5wo5cK5ei-3">
                    <mxGeometry relative="1" as="geometry">
                        <mxPoint x="769.9999999999999" y="380" as="targetPoint"/>
                    </mxGeometry>
                </mxCell>
                <mxCell id="X8GoYuU4JnJ5wo5cK5ei-3" value="ahb_bfm_master_lite_wrapper" style="rounded=1;whiteSpace=wrap;html=1;" vertex="1" parent="1">
                    <mxGeometry x="531.92" y="350" width="160" height="60" as="geometry"/>
                </mxCell>
                <mxCell id="X8GoYuU4JnJ5wo5cK5ei-7" value="" style="rounded=0;whiteSpace=wrap;html=1;" vertex="1" parent="1">
                    <mxGeometry x="550" y="490" width="38" height="30" as="geometry"/>
                </mxCell>
                <mxCell id="X8GoYuU4JnJ5wo5cK5ei-8" value="" style="rounded=0;whiteSpace=wrap;html=1;" vertex="1" parent="1">
                    <mxGeometry x="770" y="440" width="38" height="30" as="geometry"/>
                </mxCell>
                <mxCell id="X8GoYuU4JnJ5wo5cK5ei-9" value="" style="rounded=0;whiteSpace=wrap;html=1;" vertex="1" parent="1">
                    <mxGeometry x="770" y="400" width="38" height="30" as="geometry"/>
                </mxCell>
                <mxCell id="X8GoYuU4JnJ5wo5cK5ei-10" value="" style="rounded=0;whiteSpace=wrap;html=1;" vertex="1" parent="1">
                    <mxGeometry x="770" y="365" width="38" height="30" as="geometry"/>
                </mxCell>
                <mxCell id="X8GoYuU4JnJ5wo5cK5ei-11" value="" style="rounded=0;whiteSpace=wrap;html=1;" vertex="1" parent="1">
                    <mxGeometry x="770" y="330" width="38" height="30" as="geometry"/>
                </mxCell>
            </root>
        </mxGraphModel>
    </diagram>
</mxfile>